<?xml version="1.0" encoding="iso-8859-1"?>
<!-- Uploaded to: SVG Repo, www.svgrepo.com, Generator: SVG Repo Mixer Tools -->
<svg fill="#ffffff" height="800px" width="800px" version="1.1" id="Layer_1" xmlns="http://www.w3.org/2000/svg" xmlns:xlink="http://www.w3.org/1999/xlink" 
	 viewBox="0 0 512 512" xml:space="preserve">
<g transform="rotate(45 256 256)">
<g>
	<g>
		<path d="M385.862,126.138c-6.519-6.519-17.091-6.519-23.611,0c-6.52,6.52-6.52,17.091,0,23.611
			c58.586,58.587,58.586,153.914,0,212.501c-6.52,6.52-6.52,17.091,0,23.611c6.519,6.519,17.091,6.52,23.611,0
			C457.468,314.256,457.468,197.744,385.862,126.138z"/>
	</g>
</g>
<g>
	<g>
		<path d="M149.75,362.251c-58.586-58.587-58.586-153.914,0-212.501c6.519-6.52,6.519-17.091,0-23.611s-17.091-6.52-23.611,0
			c-71.605,71.605-71.605,188.117,0,259.723c6.519,6.52,17.091,6.521,23.611,0C156.27,379.342,156.27,368.771,149.75,362.251z"/>
	</g>
</g>
<g>
	<g>
		<path d="M256,172.522c-46.03,0-83.478,37.448-83.478,83.478S209.97,339.478,256,339.478S339.478,302.03,339.478,256
			S302.03,172.522,256,172.522z M256,306.087c-27.618,0-50.087-22.469-50.087-50.087c0-27.618,22.469-50.087,50.087-50.087
			c27.618,0,50.087,22.469,50.087,50.087C306.087,283.618,283.618,306.087,256,306.087z"/>
	</g>
</g>
<g>
	<g>
		<path d="M256,0C114.842,0,0,114.842,0,256s114.842,256,256,256s256-114.842,256-256S397.158,0,256,0z M256,478.609
			c-122.746,0-222.609-99.862-222.609-222.609S133.254,33.391,256,33.391S478.609,133.254,478.609,256S378.746,478.609,256,478.609z
			"/>
	</g>
</g>
</g>
</svg>